<svg width="32" height="32" viewBox="0 0 32 32" fill="none" xmlns="http://www.w3.org/2000/svg">
  <defs>
    <linearGradient id="luxuryGradient" x1="0%" y1="0%" x2="100%" y2="100%">
      <stop offset="0%" style="stop-color:#d97706;stop-opacity:1" />
      <stop offset="100%" style="stop-color:#f59e0b;stop-opacity:1" />
    </linearGradient>
  </defs>
  
  <!-- Background circle -->
  <circle cx="16" cy="16" r="15" fill="#1e293b" stroke="url(#luxuryGradient)" stroke-width="2"/>
  
  <!-- Luxury building/estate icon -->
  <g transform="translate(6, 7)">
    <!-- Main building structure -->
    <path d="M10 2 L18 8 L18 18 L2 18 L2 8 L10 2 Z" fill="url(#luxuryGradient)" opacity="0.9"/>
    
    <!-- Roof detail -->
    <path d="M10 2 L18 8 L16 8 L10 4 L4 8 L2 8 L10 2 Z" fill="#f59e0b"/>
    
    <!-- Windows -->
    <rect x="5" y="10" width="2" height="2" fill="#1e293b" rx="0.3"/>
    <rect x="8" y="10" width="2" height="2" fill="#1e293b" rx="0.3"/>
    <rect x="11" y="10" width="2" height="2" fill="#1e293b" rx="0.3"/>
    <rect x="14" y="10" width="2" height="2" fill="#1e293b" rx="0.3"/>
    
    <!-- Door -->
    <rect x="8.5" y="14" width="3" height="4" fill="#1e293b" rx="0.5"/>
    <circle cx="10.8" cy="16" r="0.3" fill="#d97706"/>
    
    <!-- Decorative elements -->
    <rect x="2" y="8" width="16" height="1" fill="#f59e0b" opacity="0.8"/>
    <rect x="4" y="6" width="12" height="0.5" fill="#d97706" opacity="0.6"/>
  </g>
</svg>
